ffmpeg version 3.4.8-0ubuntu0.2 Copyright (c) 2000-2020 the FFmpeg developers
  built with gcc 7 (Ubuntu 7.5.0-3ubuntu1~18.04)
  configuration: --prefix=/usr --extra-version=0ubuntu0.2 --toolchain=hardened --libdir=/usr/lib/x86_64-linux-gnu --incdir=/usr/include/x86_64-linux-gnu --enable-gpl --disable-stripping --enable-avresample --enable-avisynth --enable-gnutls --enable-ladspa --enable-libass --enable-libbluray --enable-libbs2b --enable-libcaca --enable-libcdio --enable-libflite --enable-libfontconfig --enable-libfreetype --enable-libfribidi --enable-libgme --enable-libgsm --enable-libmp3lame --enable-libmysofa --enable-libopenjpeg --enable-libopenmpt --enable-libopus --enable-libpulse --enable-librubberband --enable-librsvg --enable-libshine --enable-libsnappy --enable-libsoxr --enable-libspeex --enable-libssh --enable-libtheora --enable-libtwolame --enable-libvorbis --enable-libvpx --enable-libwavpack --enable-libwebp --enable-libx265 --enable-libxml2 --enable-libxvid --enable-libzmq --enable-libzvbi --enable-omx --enable-openal --enable-opengl --enable-sdl2 --enable-libdc1394 --enable-libdrm --enable-libiec61883 --enable-chromaprint --enable-frei0r --enable-libopencv --enable-libx264 --enable-shared
  libavutil      55. 78.100 / 55. 78.100
  libavcodec     57.107.100 / 57.107.100
  libavformat    57. 83.100 / 57. 83.100
  libavdevice    57. 10.100 / 57. 10.100
  libavfilter     6.107.100 /  6.107.100
  libavresample   3.  7.  0 /  3.  7.  0
  libswscale      4.  8.100 /  4.  8.100
  libswresample   2.  9.100 /  2.  9.100
  libpostproc    54.  7.100 / 54.  7.100
[rawvideo @ 0x558a2fcc7a20] Estimating duration from bitrate, this may be inaccurate
Input #0, rawvideo, from '../../SVC-Encoder-20220109T061506Z-001/SVC-Encoder/Dataset/RollerCoaster/ERP_8x8/tile_yuv/Tile_8_480x240.yuv':
  Duration: 00:00:10.00, start: 0.000000, bitrate: 41472 kb/s
    Stream #0:0: Video: rawvideo (I420 / 0x30323449), yuv420p, 480x240, 41472 kb/s, 30 tbr, 30 tbn, 30 tbc
Stream mapping:
  Stream #0:0 -> #0:0 (rawvideo (native) -> h264 (libx264))
Press [q] to stop, [?] for help
[libx264 @ 0x558a2fcd4c60] using cpu capabilities: MMX2 SSE2Fast LZCNT SSSE3 SSE4.2 AVX
[libx264 @ 0x558a2fcd4c60] profile High, level 2.1
Output #0, rawvideo, to 'RollerCoaster_Tile_8_480x240_x264_QP_20.h264':
  Metadata:
    encoder         : Lavf57.83.100
    Stream #0:0: Video: h264 (libx264), yuv420p, 480x240, q=-1--1, 30 fps, 30 tbn, 30 tbc
    Metadata:
      encoder         : Lavc57.107.100 libx264
    Side data:
      cpb: bitrate max/min/avg: 0/0/0 buffer size: 0 vbv_delay: -1
frame=  300 fps=0.0 q=26.0 LPSNR=Y:inf U:inf V:inf *:inf size=      15kB time=00:00:09.93 bitrate=  12.6kbits/s speed=38.7x    
video:15kB audio:0kB subtitle:0kB other streams:0kB global headers:0kB muxing overhead: 0.000000%
[libx264 @ 0x558a2fcd4c60] frame I:2     Avg QP:18.36  size:  1077  PSNR Mean Y:57.20 U:60.85 V:65.39 Avg:58.37 Global:58.35
[libx264 @ 0x558a2fcd4c60] frame P:76    Avg QP:19.66  size:   127  PSNR Mean Y:56.81 U:58.86 V:64.41 Avg:57.77 Global:57.73
[libx264 @ 0x558a2fcd4c60] frame B:222   Avg QP:25.65  size:    17  PSNR Mean Y:56.81 U:58.68 V:64.13 Avg:57.74 Global:57.71
[libx264 @ 0x558a2fcd4c60] consecutive B-frames:  1.3%  0.0%  0.0% 98.7%
[libx264 @ 0x558a2fcd4c60] mb I  I16..4: 86.2% 13.1%  0.7%
[libx264 @ 0x558a2fcd4c60] mb P  I16..4:  3.2%  0.9%  0.0%  P16..4:  5.5%  0.3%  0.0%  0.0%  0.0%    skip:90.0%
[libx264 @ 0x558a2fcd4c60] mb B  I16..4:  0.0%  0.0%  0.0%  B16..8:  0.5%  0.0%  0.0%  direct: 0.0%  skip:99.5%  L0:56.9% L1:43.1% BI: 0.0%
[libx264 @ 0x558a2fcd4c60] 8x8 transform intra:18.2% inter:99.7%
[libx264 @ 0x558a2fcd4c60] coded y,uvDC,uvAC intra: 2.7% 8.0% 0.1% inter: 0.1% 0.3% 0.0%
[libx264 @ 0x558a2fcd4c60] i16 v,h,dc,p: 40% 43% 12%  5%
[libx264 @ 0x558a2fcd4c60] i8 v,h,dc,ddl,ddr,vr,hd,vl,hu: 12% 24% 62%  0%  0%  1%  0%  0%  0%
[libx264 @ 0x558a2fcd4c60] i4 v,h,dc,ddl,ddr,vr,hd,vl,hu: 20% 44% 33%  0%  1%  0%  0%  0%  3%
[libx264 @ 0x558a2fcd4c60] i8c dc,h,v,p: 78% 13%  9%  1%
[libx264 @ 0x558a2fcd4c60] Weighted P-Frames: Y:0.0% UV:0.0%
[libx264 @ 0x558a2fcd4c60] ref P L0: 90.5%  0.9%  5.8%  2.8%
[libx264 @ 0x558a2fcd4c60] ref B L0: 94.2%  4.6%  1.2%
[libx264 @ 0x558a2fcd4c60] ref B L1: 97.5%  2.5%
[libx264 @ 0x558a2fcd4c60] PSNR Mean Y:56.815 U:58.744 V:64.211 Avg:57.753 Global:57.719 kb/s:12.49
